<svg width="110" height="47" viewBox="0 0 110 47" fill="none" xmlns="http://www.w3.org/2000/svg">
<path d="M7.0335 26.48H10.5215C11.2042 26.48 11.6842 26.3413 11.9615 26.064C12.2602 25.7653 12.4095 25.2747 12.4095 24.592V14.832C12.4095 14.1493 12.2602 13.6693 11.9615 13.392C11.6842 13.0933 11.2042 12.944 10.5215 12.944H7.0335C6.79883 12.944 6.6815 13.0613 6.6815 13.296V26.128C6.6815 26.3627 6.79883 26.48 7.0335 26.48ZM2.6175 29.328V10.096C2.6175 9.648 2.8415 9.424 3.2895 9.424H11.1935C12.8575 9.424 14.1482 9.88267 15.0655 10.8C16.0042 11.696 16.4735 12.976 16.4735 14.64V24.784C16.4735 26.448 16.0042 27.7387 15.0655 28.656C14.1482 29.552 12.8575 30 11.1935 30H3.2895C2.8415 30 2.6175 29.776 2.6175 29.328ZM25.649 30H22.577C22.193 30 22.065 29.776 22.193 29.328L27.249 10.096C27.3983 9.648 27.7183 9.424 28.209 9.424H32.465C32.9983 9.424 33.3183 9.648 33.425 10.096L38.481 29.328C38.609 29.776 38.481 30 38.097 30H35.025C34.7903 30 34.6303 29.9573 34.545 29.872C34.4597 29.7653 34.3957 29.584 34.353 29.328L33.457 25.808H27.217L26.321 29.328C26.2783 29.584 26.2037 29.7653 26.097 29.872C26.0117 29.9573 25.8623 30 25.649 30ZM30.289 13.296L27.985 22.544H32.721L30.417 13.296H30.289ZM47.9095 30H45.1895C44.7415 30 44.5175 29.776 44.5175 29.328V10.096C44.5175 9.648 44.7415 9.424 45.1895 9.424H55.3975C55.8242 9.424 56.0375 9.648 56.0375 10.096V12.272C56.0375 12.72 55.8242 12.944 55.3975 12.944H48.9655C48.7095 12.944 48.5815 13.0613 48.5815 13.296V18.256C48.5815 18.512 48.7095 18.64 48.9655 18.64H54.4375C54.8855 18.64 55.1095 18.864 55.1095 19.312V21.456C55.1095 21.9253 54.8855 22.16 54.4375 22.16H48.9655C48.7095 22.16 48.5815 22.2773 48.5815 22.512V29.328C48.5815 29.776 48.3575 30 47.9095 30ZM65.5157 30H62.7957C62.3477 30 62.1237 29.776 62.1237 29.328V10.096C62.1237 9.648 62.3477 9.424 62.7957 9.424H73.0037C73.4304 9.424 73.6437 9.648 73.6437 10.096V12.272C73.6437 12.72 73.4304 12.944 73.0037 12.944H66.5717C66.3157 12.944 66.1877 13.0613 66.1877 13.296V18.256C66.1877 18.512 66.3157 18.64 66.5717 18.64H72.0437C72.4917 18.64 72.7157 18.864 72.7157 19.312V21.456C72.7157 21.9253 72.4917 22.16 72.0437 22.16H66.5717C66.3157 22.16 66.1877 22.2773 66.1877 22.512V29.328C66.1877 29.776 65.9637 30 65.5157 30ZM81.874 30H78.802C78.418 30 78.29 29.776 78.418 29.328L83.474 10.096C83.6233 9.648 83.9433 9.424 84.434 9.424H88.69C89.2233 9.424 89.5433 9.648 89.65 10.096L94.706 29.328C94.834 29.776 94.706 30 94.322 30H91.25C91.0153 30 90.8553 29.9573 90.77 29.872C90.6847 29.7653 90.6207 29.584 90.578 29.328L89.682 25.808H83.442L82.546 29.328C82.5033 29.584 82.4287 29.7653 82.322 29.872C82.2367 29.9573 82.0873 30 81.874 30ZM86.514 13.296L84.21 22.544H88.946L86.642 13.296H86.514Z" fill="url(#paint0_linear_1_54)"/>
<path d="M2.716 42H1.468C1.312 42 1.26 41.909 1.312 41.727L3.366 33.914C3.42667 33.732 3.55667 33.641 3.756 33.641H5.485C5.70167 33.641 5.83167 33.732 5.875 33.914L7.929 41.727C7.981 41.909 7.929 42 7.773 42H6.525C6.42967 42 6.36467 41.9827 6.33 41.948C6.29533 41.9047 6.26933 41.831 6.252 41.727L5.888 40.297H3.353L2.989 41.727C2.97167 41.831 2.94133 41.9047 2.898 41.948C2.86333 41.9827 2.80267 42 2.716 42ZM4.601 35.214L3.665 38.971H5.589L4.653 35.214H4.601ZM10.4593 42H9.35433C9.17233 42 9.08133 41.909 9.08133 41.727V33.914C9.08133 33.732 9.17233 33.641 9.35433 33.641H10.4593C10.6413 33.641 10.7323 33.732 10.7323 33.914V37.619H10.7583C10.8277 37.411 10.962 37.1423 11.1613 36.813L13.1373 33.914C13.25 33.732 13.419 33.641 13.6443 33.641H14.9183C15.0137 33.641 15.07 33.6713 15.0873 33.732C15.1133 33.784 15.0917 33.8533 15.0223 33.94L12.5523 37.359L15.3083 41.675C15.369 41.779 15.3777 41.8613 15.3343 41.922C15.2997 41.974 15.2217 42 15.1003 42H14.1513C13.848 42 13.6443 41.909 13.5403 41.727L11.5513 38.542L10.7323 39.504V41.727C10.7323 41.909 10.6413 42 10.4593 42ZM17.7084 42H16.6034C16.4214 42 16.3304 41.909 16.3304 41.727V33.914C16.3304 33.732 16.4214 33.641 16.6034 33.641H17.7084C17.8904 33.641 17.9814 33.732 17.9814 33.914V36.969C17.9814 37.0643 18.0334 37.112 18.1374 37.112H20.3344C20.4297 37.112 20.4774 37.0643 20.4774 36.969V33.914C20.4774 33.732 20.5684 33.641 20.7504 33.641H21.8554C22.0374 33.641 22.1284 33.732 22.1284 33.914V41.727C22.1284 41.909 22.0374 42 21.8554 42H20.7504C20.5684 42 20.4774 41.909 20.4774 41.727V38.685C20.4774 38.5897 20.4297 38.542 20.3344 38.542H18.1374C18.0334 38.542 17.9814 38.5897 17.9814 38.685V41.727C17.9814 41.909 17.8904 42 17.7084 42ZM25.6146 40.57H27.0316C27.3089 40.57 27.5039 40.5137 27.6166 40.401C27.7379 40.2797 27.7986 40.0803 27.7986 39.803V35.838C27.7986 35.5607 27.7379 35.3657 27.6166 35.253C27.5039 35.1317 27.3089 35.071 27.0316 35.071H25.6146C25.5193 35.071 25.4716 35.1187 25.4716 35.214V40.427C25.4716 40.5223 25.5193 40.57 25.6146 40.57ZM23.8206 41.727V33.914C23.8206 33.732 23.9116 33.641 24.0936 33.641H27.3046C27.9806 33.641 28.5049 33.8273 28.8776 34.2C29.2589 34.564 29.4496 35.084 29.4496 35.76V39.881C29.4496 40.557 29.2589 41.0813 28.8776 41.454C28.5049 41.818 27.9806 42 27.3046 42H24.0936C23.9116 42 23.8206 41.909 23.8206 41.727ZM31.8771 42H30.6291C30.4731 42 30.4211 41.909 30.4731 41.727L32.5271 33.914C32.5878 33.732 32.7178 33.641 32.9171 33.641H34.6461C34.8628 33.641 34.9928 33.732 35.0361 33.914L37.0901 41.727C37.1421 41.909 37.0901 42 36.9341 42H35.6861C35.5908 42 35.5258 41.9827 35.4911 41.948C35.4565 41.9047 35.4305 41.831 35.4131 41.727L35.0491 40.297H32.5141L32.1501 41.727C32.1328 41.831 32.1025 41.9047 32.0591 41.948C32.0245 41.9827 31.9638 42 31.8771 42ZM33.7621 35.214L32.8261 38.971H34.7501L33.8141 35.214H33.7621ZM39.5945 42H38.5155C38.3335 42 38.2425 41.909 38.2425 41.727V33.914C38.2425 33.732 38.3335 33.641 38.5155 33.641H39.4905C39.6725 33.641 39.7938 33.7017 39.8545 33.823L42.4805 38.75H42.5325V33.914C42.5325 33.732 42.6235 33.641 42.8055 33.641H43.8845C44.0665 33.641 44.1575 33.732 44.1575 33.914V41.727C44.1575 41.909 44.0665 42 43.8845 42H42.9355C42.7448 42 42.6061 41.9133 42.5195 41.74L39.9195 36.904H39.8675V41.727C39.8675 41.909 39.7765 42 39.5945 42ZM50.0814 42H48.9764C48.7944 42 48.7034 41.909 48.7034 41.727V33.914C48.7034 33.732 48.7944 33.641 48.9764 33.641H53.1234C53.2967 33.641 53.3834 33.732 53.3834 33.914V34.798C53.3834 34.98 53.2967 35.071 53.1234 35.071H50.5104C50.4064 35.071 50.3544 35.1187 50.3544 35.214V37.229C50.3544 37.333 50.4064 37.385 50.5104 37.385H52.7334C52.9154 37.385 53.0064 37.476 53.0064 37.658V38.529C53.0064 38.7197 52.9154 38.815 52.7334 38.815H50.5104C50.4064 38.815 50.3544 38.8627 50.3544 38.958V41.727C50.3544 41.909 50.2634 42 50.0814 42ZM55.4269 42H54.1789C54.0229 42 53.9709 41.909 54.0229 41.727L56.0769 33.914C56.1376 33.732 56.2676 33.641 56.4669 33.641H58.1959C58.4126 33.641 58.5426 33.732 58.5859 33.914L60.6399 41.727C60.6919 41.909 60.6399 42 60.4839 42H59.2359C59.1406 42 59.0756 41.9827 59.0409 41.948C59.0063 41.9047 58.9803 41.831 58.9629 41.727L58.5989 40.297H56.0639L55.6999 41.727C55.6826 41.831 55.6523 41.9047 55.6089 41.948C55.5743 41.9827 55.5136 42 55.4269 42ZM57.3119 35.214L56.3759 38.971H58.2999L57.3639 35.214H57.3119ZM63.5863 40.57H65.0033C65.2806 40.57 65.4756 40.5137 65.5883 40.401C65.7096 40.2797 65.7703 40.0803 65.7703 39.803V35.838C65.7703 35.5607 65.7096 35.3657 65.5883 35.253C65.4756 35.1317 65.2806 35.071 65.0033 35.071H63.5863C63.4909 35.071 63.4433 35.1187 63.4433 35.214V40.427C63.4433 40.5223 63.4909 40.57 63.5863 40.57ZM61.7923 41.727V33.914C61.7923 33.732 61.8833 33.641 62.0653 33.641H65.2763C65.9523 33.641 66.4766 33.8273 66.8493 34.2C67.2306 34.564 67.4213 35.084 67.4213 35.76V39.881C67.4213 40.557 67.2306 41.0813 66.8493 41.454C66.4766 41.818 65.9523 42 65.2763 42H62.0653C61.8833 42 61.7923 41.909 61.7923 41.727ZM70.3558 42H69.2508C69.0688 42 68.9778 41.909 68.9778 41.727V33.914C68.9778 33.732 69.0688 33.641 69.2508 33.641H70.3558C70.5378 33.641 70.6288 33.732 70.6288 33.914V36.969C70.6288 37.0643 70.6808 37.112 70.7848 37.112H72.9818C73.0771 37.112 73.1248 37.0643 73.1248 36.969V33.914C73.1248 33.732 73.2158 33.641 73.3978 33.641H74.5028C74.6848 33.641 74.7758 33.732 74.7758 33.914V41.727C74.7758 41.909 74.6848 42 74.5028 42H73.3978C73.2158 42 73.1248 41.909 73.1248 41.727V38.685C73.1248 38.5897 73.0771 38.542 72.9818 38.542H70.7848C70.6808 38.542 70.6288 38.5897 70.6288 38.685V41.727C70.6288 41.909 70.5378 42 70.3558 42ZM78.184 33.914V41.727C78.184 41.909 78.093 42 77.911 42H76.806C76.624 42 76.533 41.909 76.533 41.727V33.914C76.533 33.732 76.624 33.641 76.806 33.641H77.911C78.093 33.641 78.184 33.732 78.184 33.914ZM84.4839 42H80.2069C80.0249 42 79.9339 41.909 79.9339 41.727V33.914C79.9339 33.732 80.0249 33.641 80.2069 33.641H81.3119C81.4939 33.641 81.5849 33.732 81.5849 33.914V40.414C81.5849 40.5093 81.6369 40.557 81.7409 40.557H84.4839C84.6572 40.557 84.7439 40.6523 84.7439 40.843V41.727C84.7439 41.909 84.6572 42 84.4839 42ZM90.3237 42H86.0467C85.8647 42 85.7737 41.909 85.7737 41.727V33.914C85.7737 33.732 85.8647 33.641 86.0467 33.641H87.1517C87.3337 33.641 87.4247 33.732 87.4247 33.914V40.414C87.4247 40.5093 87.4767 40.557 87.5807 40.557H90.3237C90.497 40.557 90.5837 40.6523 90.5837 40.843V41.727C90.5837 41.909 90.497 42 90.3237 42ZM92.4846 42H91.2366C91.0806 42 91.0286 41.909 91.0806 41.727L93.1346 33.914C93.1952 33.732 93.3252 33.641 93.5246 33.641H95.2536C95.4702 33.641 95.6002 33.732 95.6436 33.914L97.6976 41.727C97.7496 41.909 97.6976 42 97.5416 42H96.2936C96.1982 42 96.1332 41.9827 96.0986 41.948C96.0639 41.9047 96.0379 41.831 96.0206 41.727L95.6566 40.297H93.1216L92.7576 41.727C92.7402 41.831 92.7099 41.9047 92.6666 41.948C92.6319 41.9827 92.5712 42 92.4846 42ZM94.3696 35.214L93.4336 38.971H95.3576L94.4216 35.214H94.3696ZM100.228 42H99.1229C98.9409 42 98.8499 41.909 98.8499 41.727V33.914C98.8499 33.732 98.9409 33.641 99.1229 33.641H100.228C100.41 33.641 100.501 33.732 100.501 33.914V36.969C100.501 37.0643 100.553 37.112 100.657 37.112H102.854C102.949 37.112 102.997 37.0643 102.997 36.969V33.914C102.997 33.732 103.088 33.641 103.27 33.641H104.375C104.557 33.641 104.648 33.732 104.648 33.914V41.727C104.648 41.909 104.557 42 104.375 42H103.27C103.088 42 102.997 41.909 102.997 41.727V38.685C102.997 38.5897 102.949 38.542 102.854 38.542H100.657C100.553 38.542 100.501 38.5897 100.501 38.685V41.727C100.501 41.909 100.41 42 100.228 42Z" fill="white"/>
<defs>
<linearGradient id="paint0_linear_1_54" x1="15.4286" y1="0" x2="101.714" y2="0" gradientUnits="userSpaceOnUse">
<stop stop-color="#FF56F6"/>
<stop offset="0.392224" stop-color="#B936EE"/>
<stop offset="0.668897" stop-color="#3BACE2"/>
<stop offset="1" stop-color="#406AFF"/>
</linearGradient>
</defs>
</svg>
